<svg width="1865" height="1809" viewBox="0 0 1865 1809" fill="none" xmlns="http://www.w3.org/2000/svg">
<ellipse cx="738.79" cy="1524.53" rx="738.79" ry="57.9985" fill="url(#paint0_radial_23_269)"/>
<rect x="140.854" width="1135.11" height="1527.29" rx="110.473" fill="#1B1D1B"/>
<rect x="218.185" y="104.95" width="980.45" height="1317.39" rx="44.1893" fill="#FFFFFE"/>
<rect x="273.421" y="187.805" width="864.453" height="108.237" rx="27.6183" fill="#F6F5F4"/>
<path d="M312.93 234.32C312.742 232.729 311.978 231.495 310.639 230.616C309.3 229.737 307.658 229.298 305.712 229.298C304.289 229.298 303.044 229.528 301.977 229.989C300.921 230.449 300.094 231.082 299.498 231.887C298.912 232.693 298.619 233.608 298.619 234.633C298.619 235.491 298.823 236.229 299.231 236.846C299.649 237.453 300.183 237.96 300.832 238.368C301.48 238.766 302.16 239.095 302.872 239.357C303.583 239.608 304.237 239.812 304.833 239.969L308.097 240.848C308.934 241.067 309.865 241.371 310.89 241.758C311.926 242.145 312.915 242.673 313.856 243.343C314.808 244.002 315.593 244.849 316.21 245.885C316.827 246.92 317.136 248.192 317.136 249.698C317.136 251.435 316.681 253.004 315.771 254.406C314.871 255.807 313.553 256.922 311.816 257.748C310.09 258.575 307.993 258.988 305.524 258.988C303.222 258.988 301.229 258.616 299.545 257.874C297.871 257.131 296.553 256.095 295.59 254.767C294.638 253.438 294.1 251.895 293.974 250.137H297.991C298.096 251.351 298.504 252.355 299.215 253.15C299.937 253.935 300.847 254.521 301.946 254.908C303.055 255.284 304.247 255.473 305.524 255.473C307.009 255.473 308.343 255.232 309.525 254.751C310.707 254.259 311.644 253.579 312.334 252.711C313.025 251.832 313.37 250.807 313.37 249.635C313.37 248.568 313.072 247.7 312.475 247.03C311.879 246.361 311.094 245.817 310.121 245.398C309.149 244.98 308.097 244.614 306.967 244.3L303.013 243.17C300.502 242.448 298.514 241.418 297.05 240.079C295.585 238.74 294.853 236.987 294.853 234.822C294.853 233.022 295.339 231.453 296.312 230.114C297.296 228.765 298.614 227.718 300.267 226.976C301.93 226.222 303.787 225.846 305.837 225.846C307.909 225.846 309.75 226.217 311.361 226.96C312.972 227.692 314.248 228.697 315.19 229.973C316.142 231.249 316.644 232.698 316.696 234.32H312.93ZM333.138 258.925C330.816 258.925 328.812 258.412 327.128 257.387C325.454 256.351 324.162 254.908 323.252 253.056C322.352 251.194 321.902 249.028 321.902 246.56C321.902 244.091 322.352 241.915 323.252 240.032C324.162 238.138 325.428 236.663 327.049 235.606C328.681 234.539 330.585 234.006 332.761 234.006C334.017 234.006 335.256 234.215 336.48 234.633C337.704 235.052 338.819 235.732 339.823 236.673C340.827 237.604 341.628 238.839 342.224 240.377C342.82 241.915 343.118 243.808 343.118 246.057V247.627H324.539V244.425H339.352C339.352 243.065 339.08 241.852 338.536 240.785C338.003 239.718 337.239 238.876 336.245 238.258C335.262 237.641 334.1 237.332 332.761 237.332C331.286 237.332 330.01 237.699 328.932 238.431C327.865 239.153 327.044 240.094 326.469 241.256C325.893 242.417 325.606 243.662 325.606 244.99V247.124C325.606 248.945 325.92 250.488 326.547 251.754C327.185 253.009 328.069 253.966 329.199 254.625C330.329 255.274 331.642 255.598 333.138 255.598C334.111 255.598 334.99 255.462 335.774 255.19C336.569 254.908 337.255 254.489 337.83 253.935C338.405 253.37 338.85 252.669 339.164 251.832L342.742 252.836C342.365 254.05 341.732 255.117 340.843 256.038C339.954 256.948 338.855 257.659 337.548 258.172C336.24 258.674 334.77 258.925 333.138 258.925ZM355.845 258.988C354.317 258.988 352.931 258.7 351.686 258.125C350.441 257.539 349.453 256.697 348.72 255.598C347.988 254.489 347.622 253.15 347.622 251.581C347.622 250.2 347.894 249.081 348.438 248.223C348.982 247.355 349.709 246.675 350.619 246.183C351.529 245.691 352.534 245.325 353.632 245.084C354.741 244.833 355.855 244.635 356.975 244.488C358.439 244.3 359.626 244.159 360.537 244.064C361.457 243.96 362.127 243.787 362.545 243.547C362.974 243.306 363.189 242.888 363.189 242.291V242.166C363.189 240.617 362.765 239.414 361.918 238.556C361.081 237.699 359.81 237.27 358.104 237.27C356.336 237.27 354.95 237.657 353.946 238.431C352.942 239.205 352.235 240.032 351.827 240.91L348.312 239.655C348.94 238.19 349.777 237.05 350.823 236.234C351.88 235.408 353.031 234.832 354.275 234.508C355.531 234.173 356.765 234.006 357.979 234.006C358.753 234.006 359.642 234.1 360.646 234.288C361.661 234.466 362.639 234.837 363.581 235.402C364.533 235.967 365.323 236.82 365.95 237.96C366.578 239.1 366.892 240.628 366.892 242.542V258.423H363.189V255.159H363C362.749 255.682 362.331 256.242 361.745 256.838C361.159 257.434 360.38 257.942 359.407 258.36C358.434 258.779 357.247 258.988 355.845 258.988ZM356.41 255.661C357.874 255.661 359.109 255.373 360.113 254.798C361.128 254.223 361.891 253.48 362.404 252.57C362.927 251.66 363.189 250.702 363.189 249.698V246.308C363.032 246.497 362.686 246.669 362.153 246.826C361.63 246.973 361.023 247.104 360.333 247.219C359.653 247.323 358.988 247.417 358.34 247.501C357.702 247.574 357.184 247.637 356.786 247.689C355.824 247.815 354.924 248.019 354.087 248.301C353.261 248.573 352.591 248.987 352.079 249.541C351.576 250.085 351.325 250.828 351.325 251.769C351.325 253.056 351.801 254.029 352.753 254.688C353.716 255.337 354.935 255.661 356.41 255.661ZM373.651 258.423V234.32H377.229V237.96H377.48C377.92 236.768 378.715 235.8 379.866 235.057C381.016 234.314 382.314 233.943 383.757 233.943C384.029 233.943 384.369 233.948 384.777 233.959C385.185 233.969 385.494 233.985 385.703 234.006V237.772C385.578 237.74 385.29 237.693 384.84 237.631C384.401 237.557 383.935 237.521 383.443 237.521C382.272 237.521 381.226 237.767 380.305 238.258C379.395 238.74 378.673 239.409 378.139 240.267C377.616 241.114 377.355 242.082 377.355 243.17V258.423H373.651ZM399.151 258.925C396.892 258.925 394.946 258.391 393.314 257.324C391.682 256.257 390.426 254.787 389.548 252.915C388.669 251.042 388.229 248.903 388.229 246.497C388.229 244.049 388.679 241.888 389.579 240.016C390.489 238.133 391.755 236.663 393.377 235.606C395.009 234.539 396.913 234.006 399.089 234.006C400.783 234.006 402.311 234.32 403.671 234.947C405.031 235.575 406.145 236.454 407.013 237.584C407.881 238.713 408.42 240.032 408.629 241.538H404.926C404.644 240.44 404.016 239.467 403.043 238.619C402.081 237.761 400.783 237.332 399.151 237.332C397.708 237.332 396.442 237.709 395.354 238.462C394.276 239.205 393.434 240.256 392.827 241.616C392.231 242.966 391.933 244.551 391.933 246.371C391.933 248.233 392.226 249.855 392.812 251.236C393.408 252.617 394.245 253.689 395.322 254.453C396.41 255.216 397.687 255.598 399.151 255.598C400.114 255.598 400.987 255.431 401.772 255.096C402.557 254.761 403.221 254.28 403.765 253.652C404.309 253.025 404.696 252.271 404.926 251.393H408.629C408.42 252.815 407.902 254.097 407.076 255.237C406.26 256.367 405.177 257.267 403.828 257.936C402.489 258.595 400.93 258.925 399.151 258.925ZM417.747 243.923V258.423H414.043V226.285H417.747V238.086H418.06C418.625 236.841 419.473 235.852 420.603 235.12C421.743 234.377 423.26 234.006 425.153 234.006C426.796 234.006 428.234 234.335 429.469 234.994C430.703 235.643 431.66 236.642 432.34 237.992C433.031 239.331 433.376 241.036 433.376 243.107V258.423H429.673V243.358C429.673 241.444 429.176 239.964 428.182 238.917C427.199 237.861 425.833 237.332 424.086 237.332C422.873 237.332 421.785 237.589 420.822 238.101C419.87 238.614 419.117 239.362 418.563 240.345C418.019 241.329 417.747 242.521 417.747 243.923ZM453.082 258.423V226.285H472.352V229.737H456.973V240.596H470.908V244.049H456.973V258.423H453.082ZM486.537 258.925C484.361 258.925 482.452 258.407 480.81 257.371C479.178 256.336 477.901 254.887 476.981 253.025C476.071 251.163 475.616 248.987 475.616 246.497C475.616 243.986 476.071 241.794 476.981 239.922C477.901 238.049 479.178 236.595 480.81 235.559C482.452 234.524 484.361 234.006 486.537 234.006C488.713 234.006 490.617 234.524 492.249 235.559C493.892 236.595 495.168 238.049 496.078 239.922C496.999 241.794 497.459 243.986 497.459 246.497C497.459 248.987 496.999 251.163 496.078 253.025C495.168 254.887 493.892 256.336 492.249 257.371C490.617 258.407 488.713 258.925 486.537 258.925ZM486.537 255.598C488.19 255.598 489.55 255.175 490.617 254.327C491.684 253.48 492.474 252.366 492.987 250.985C493.5 249.604 493.756 248.108 493.756 246.497C493.756 244.886 493.5 243.384 492.987 241.993C492.474 240.602 491.684 239.477 490.617 238.619C489.55 237.761 488.19 237.332 486.537 237.332C484.884 237.332 483.524 237.761 482.457 238.619C481.39 239.477 480.6 240.602 480.088 241.993C479.575 243.384 479.319 244.886 479.319 246.497C479.319 248.108 479.575 249.604 480.088 250.985C480.6 252.366 481.39 253.48 482.457 254.327C483.524 255.175 484.884 255.598 486.537 255.598ZM503.112 258.423V234.32H506.69V237.96H506.941C507.381 236.768 508.176 235.8 509.326 235.057C510.477 234.314 511.774 233.943 513.218 233.943C513.49 233.943 513.83 233.948 514.238 233.959C514.646 233.969 514.955 233.985 515.164 234.006V237.772C515.038 237.74 514.751 237.693 514.301 237.631C513.861 237.557 513.396 237.521 512.904 237.521C511.733 237.521 510.686 237.767 509.766 238.258C508.856 238.74 508.134 239.409 507.6 240.267C507.077 241.114 506.816 242.082 506.816 243.17V258.423H503.112ZM542.088 258.925C539.765 258.925 537.762 258.412 536.078 257.387C534.404 256.351 533.112 254.908 532.202 253.056C531.302 251.194 530.852 249.028 530.852 246.56C530.852 244.091 531.302 241.915 532.202 240.032C533.112 238.138 534.378 236.663 535.999 235.606C537.631 234.539 539.535 234.006 541.711 234.006C542.967 234.006 544.206 234.215 545.43 234.633C546.654 235.052 547.768 235.732 548.773 236.673C549.777 237.604 550.577 238.839 551.174 240.377C551.77 241.915 552.068 243.808 552.068 246.057V247.627H533.489V244.425H548.302C548.302 243.065 548.03 241.852 547.486 240.785C546.952 239.718 546.189 238.876 545.195 238.258C544.212 237.641 543.05 237.332 541.711 237.332C540.236 237.332 538.96 237.699 537.882 238.431C536.815 239.153 535.994 240.094 535.419 241.256C534.843 242.417 534.556 243.662 534.556 244.99V247.124C534.556 248.945 534.869 250.488 535.497 251.754C536.135 253.009 537.019 253.966 538.149 254.625C539.279 255.274 540.592 255.598 542.088 255.598C543.061 255.598 543.94 255.462 544.724 255.19C545.519 254.908 546.204 254.489 546.78 253.935C547.355 253.37 547.8 252.669 548.114 251.832L551.692 252.836C551.315 254.05 550.682 255.117 549.793 256.038C548.904 256.948 547.805 257.659 546.497 258.172C545.19 258.674 543.72 258.925 542.088 258.925ZM558.204 258.423V226.285H569.439C571.678 226.285 573.525 226.672 574.979 227.446C576.433 228.21 577.516 229.241 578.227 230.538C578.938 231.825 579.294 233.253 579.294 234.822C579.294 236.203 579.048 237.343 578.557 238.243C578.075 239.142 577.437 239.854 576.642 240.377C575.858 240.9 575.005 241.287 574.084 241.538V241.852C575.068 241.915 576.056 242.26 577.05 242.888C578.044 243.515 578.876 244.415 579.545 245.587C580.215 246.758 580.55 248.192 580.55 249.886C580.55 251.497 580.183 252.946 579.451 254.233C578.719 255.52 577.563 256.54 575.983 257.293C574.403 258.046 572.348 258.423 569.816 258.423H558.204ZM562.095 254.971H569.816C572.358 254.971 574.163 254.479 575.23 253.495C576.307 252.502 576.846 251.299 576.846 249.886C576.846 248.798 576.569 247.794 576.014 246.873C575.46 245.942 574.67 245.2 573.645 244.645C572.62 244.08 571.406 243.798 570.004 243.798H562.095V254.971ZM562.095 240.408H569.314C570.486 240.408 571.542 240.178 572.484 239.718C573.436 239.257 574.189 238.609 574.743 237.772C575.308 236.935 575.591 235.952 575.591 234.822C575.591 233.409 575.099 232.212 574.116 231.228C573.132 230.234 571.574 229.737 569.439 229.737H562.095V240.408ZM596.234 258.925C594.058 258.925 592.149 258.407 590.506 257.371C588.874 256.336 587.598 254.887 586.677 253.025C585.767 251.163 585.312 248.987 585.312 246.497C585.312 243.986 585.767 241.794 586.677 239.922C587.598 238.049 588.874 236.595 590.506 235.559C592.149 234.524 594.058 234.006 596.234 234.006C598.41 234.006 600.314 234.524 601.946 235.559C603.588 236.595 604.865 238.049 605.775 239.922C606.695 241.794 607.156 243.986 607.156 246.497C607.156 248.987 606.695 251.163 605.775 253.025C604.865 254.887 603.588 256.336 601.946 257.371C600.314 258.407 598.41 258.925 596.234 258.925ZM596.234 255.598C597.887 255.598 599.247 255.175 600.314 254.327C601.381 253.48 602.171 252.366 602.683 250.985C603.196 249.604 603.452 248.108 603.452 246.497C603.452 244.886 603.196 243.384 602.683 241.993C602.171 240.602 601.381 239.477 600.314 238.619C599.247 237.761 597.887 237.332 596.234 237.332C594.581 237.332 593.221 237.761 592.154 238.619C591.087 239.477 590.297 240.602 589.784 241.993C589.272 243.384 589.015 244.886 589.015 246.497C589.015 248.108 589.272 249.604 589.784 250.985C590.297 252.366 591.087 253.48 592.154 254.327C593.221 255.175 594.581 255.598 596.234 255.598ZM622.601 258.925C620.425 258.925 618.516 258.407 616.873 257.371C615.241 256.336 613.965 254.887 613.044 253.025C612.134 251.163 611.679 248.987 611.679 246.497C611.679 243.986 612.134 241.794 613.044 239.922C613.965 238.049 615.241 236.595 616.873 235.559C618.516 234.524 620.425 234.006 622.601 234.006C624.777 234.006 626.681 234.524 628.313 235.559C629.955 236.595 631.231 238.049 632.142 239.922C633.062 241.794 633.523 243.986 633.523 246.497C633.523 248.987 633.062 251.163 632.142 253.025C631.231 254.887 629.955 256.336 628.313 257.371C626.681 258.407 624.777 258.925 622.601 258.925ZM622.601 255.598C624.254 255.598 625.614 255.175 626.681 254.327C627.748 253.48 628.538 252.366 629.05 250.985C629.563 249.604 629.819 248.108 629.819 246.497C629.819 244.886 629.563 243.384 629.05 241.993C628.538 240.602 627.748 239.477 626.681 238.619C625.614 237.761 624.254 237.332 622.601 237.332C620.948 237.332 619.588 237.761 618.521 238.619C617.454 239.477 616.664 240.602 616.151 241.993C615.639 243.384 615.382 244.886 615.382 246.497C615.382 248.108 615.639 249.604 616.151 250.985C616.664 252.366 617.454 253.48 618.521 254.327C619.588 255.175 620.948 255.598 622.601 255.598ZM642.628 249.635L642.565 245.053H643.318L653.864 234.32H658.446L647.21 245.681H646.896L642.628 249.635ZM639.176 258.423V226.285H642.879V258.423H639.176ZM654.491 258.423L645.076 246.497L647.712 243.923L659.199 258.423H654.491ZM680.285 239.718L676.959 240.659C676.749 240.105 676.441 239.566 676.033 239.043C675.635 238.509 675.091 238.07 674.401 237.725C673.71 237.38 672.826 237.207 671.749 237.207C670.274 237.207 669.045 237.547 668.061 238.227C667.088 238.896 666.602 239.749 666.602 240.785C666.602 241.705 666.937 242.432 667.606 242.966C668.276 243.5 669.322 243.944 670.745 244.3L674.322 245.179C676.477 245.702 678.083 246.502 679.14 247.58C680.196 248.647 680.725 250.022 680.725 251.707C680.725 253.087 680.327 254.322 679.532 255.41C678.748 256.498 677.649 257.356 676.237 257.983C674.824 258.611 673.182 258.925 671.309 258.925C668.851 258.925 666.816 258.391 665.205 257.324C663.594 256.257 662.574 254.699 662.145 252.648L665.66 251.769C665.995 253.067 666.628 254.039 667.559 254.688C668.501 255.337 669.73 255.661 671.247 255.661C672.973 255.661 674.343 255.295 675.358 254.563C676.383 253.82 676.896 252.931 676.896 251.895C676.896 251.058 676.603 250.357 676.017 249.792C675.431 249.217 674.532 248.788 673.318 248.505L669.301 247.564C667.093 247.041 665.472 246.23 664.436 245.132C663.411 244.023 662.898 242.636 662.898 240.973C662.898 239.613 663.28 238.41 664.044 237.364C664.818 236.318 665.869 235.497 667.198 234.9C668.537 234.304 670.054 234.006 671.749 234.006C674.134 234.006 676.007 234.529 677.367 235.575C678.737 236.621 679.71 238.002 680.285 239.718Z" fill="black"/>
<line x1="1039.74" y1="212.924" x2="1119.83" y2="212.924" stroke="#969390" stroke-width="8.2855"/>
<line x1="1039.74" y1="237.78" x2="1119.83" y2="237.78" stroke="#969390" stroke-width="8.2855"/>
<line x1="1039.74" y1="262.637" x2="1119.83" y2="262.637" stroke="#969390" stroke-width="8.2855"/>
<rect x="284.469" y="386.656" width="162.948" height="231.994" rx="13.8092" fill="#6383A4"/>
<rect x="309.325" y="419.798" width="113.235" height="27.6183" rx="13.8092" fill="#D9D9D9"/>
<rect x="309.325" y="475.035" width="113.235" height="102.188" rx="8.2855" fill="#D9D9D9"/>
<rect x="324.515" y="632.46" width="82.855" height="13.8092" rx="6.90458" fill="#D9D9D9"/>
<rect x="335.562" y="651.792" width="60.7603" height="13.8092" rx="6.90458" fill="#D9D9D9"/>
<rect x="513.701" y="386.656" width="162.948" height="231.994" rx="13.8092" fill="#9F63A4"/>
<rect x="538.557" y="419.798" width="113.235" height="27.6183" rx="13.8092" fill="#D9D9D9"/>
<rect x="538.557" y="475.035" width="113.235" height="102.188" rx="8.2855" fill="#D9D9D9"/>
<rect x="553.748" y="632.46" width="82.855" height="13.8092" rx="6.90458" fill="#D9D9D9"/>
<rect x="564.794" y="651.792" width="60.7603" height="13.8092" rx="6.90458" fill="#D9D9D9"/>
<rect x="742.933" y="386.656" width="162.948" height="231.994" rx="13.8092" fill="#63A499"/>
<rect x="767.79" y="419.798" width="113.235" height="27.6183" rx="13.8092" fill="#D9D9D9"/>
<rect x="767.79" y="475.035" width="113.235" height="102.188" rx="8.2855" fill="#D9D9D9"/>
<rect x="782.979" y="632.46" width="82.855" height="13.8092" rx="6.90458" fill="#D9D9D9"/>
<rect x="794.027" y="651.792" width="60.7603" height="13.8092" rx="6.90458" fill="#D9D9D9"/>
<rect x="972.165" y="386.656" width="162.948" height="231.994" rx="13.8092" fill="#6563A4"/>
<rect x="997.021" y="419.798" width="113.235" height="27.6183" rx="13.8092" fill="#D9D9D9"/>
<rect x="997.021" y="475.035" width="113.235" height="102.188" rx="8.2855" fill="#D9D9D9"/>
<rect x="1012.21" y="632.46" width="82.855" height="13.8092" rx="6.90458" fill="#D9D9D9"/>
<rect x="1023.26" y="651.792" width="60.7603" height="13.8092" rx="6.90458" fill="#D9D9D9"/>
<rect x="284.469" y="686.602" width="162.948" height="231.994" rx="13.8092" fill="#63A474"/>
<rect x="309.325" y="719.744" width="113.235" height="27.6183" rx="13.8092" fill="#D9D9D9"/>
<rect x="309.325" y="774.98" width="113.235" height="102.188" rx="8.2855" fill="#D9D9D9"/>
<rect x="324.515" y="932.405" width="82.855" height="13.8092" rx="6.90458" fill="#D9D9D9"/>
<rect x="335.562" y="951.737" width="60.7603" height="13.8092" rx="6.90458" fill="#D9D9D9"/>
<rect x="513.701" y="686.602" width="162.948" height="231.994" rx="13.8092" fill="#5D9DCA"/>
<rect x="538.557" y="719.744" width="113.235" height="27.6183" rx="13.8092" fill="#D9D9D9"/>
<rect x="538.557" y="774.98" width="113.235" height="102.188" rx="8.2855" fill="#D9D9D9"/>
<rect x="553.748" y="932.405" width="82.855" height="13.8092" rx="6.90458" fill="#D9D9D9"/>
<rect x="564.794" y="951.737" width="60.7603" height="13.8092" rx="6.90458" fill="#D9D9D9"/>
<rect x="742.933" y="686.602" width="162.948" height="231.994" rx="13.8092" fill="#E23CB0"/>
<rect x="767.79" y="719.744" width="113.235" height="27.6183" rx="13.8092" fill="#D9D9D9"/>
<rect x="767.79" y="774.98" width="113.235" height="102.188" rx="8.2855" fill="#D9D9D9"/>
<rect x="782.979" y="932.405" width="82.855" height="13.8092" rx="6.90458" fill="#D9D9D9"/>
<rect x="794.027" y="951.737" width="60.7603" height="13.8092" rx="6.90458" fill="#D9D9D9"/>
<rect x="972.165" y="686.602" width="162.948" height="231.994" rx="13.8092" fill="#47298D"/>
<rect x="997.021" y="719.744" width="113.235" height="27.6183" rx="13.8092" fill="#D9D9D9"/>
<rect x="997.021" y="774.98" width="113.235" height="102.188" rx="8.2855" fill="#D9D9D9"/>
<rect x="1012.21" y="932.405" width="82.855" height="13.8092" rx="6.90458" fill="#D9D9D9"/>
<rect x="1023.26" y="951.737" width="60.7603" height="13.8092" rx="6.90458" fill="#D9D9D9"/>
<rect x="284.469" y="986.547" width="162.948" height="231.994" rx="13.8092" fill="#81A463"/>
<rect x="309.325" y="1019.69" width="113.235" height="27.6183" rx="13.8092" fill="#D9D9D9"/>
<rect x="309.325" y="1074.93" width="113.235" height="102.188" rx="8.2855" fill="#D9D9D9"/>
<rect x="324.515" y="1232.35" width="82.855" height="13.8092" rx="6.90458" fill="#D9D9D9"/>
<rect x="335.562" y="1251.68" width="60.7603" height="13.8092" rx="6.90458" fill="#D9D9D9"/>
<rect x="513.701" y="986.547" width="162.948" height="231.994" rx="13.8092" fill="#A46363"/>
<rect x="538.557" y="1019.69" width="113.235" height="27.6183" rx="13.8092" fill="#D9D9D9"/>
<rect x="538.557" y="1074.93" width="113.235" height="102.188" rx="8.2855" fill="#D9D9D9"/>
<rect x="553.748" y="1232.35" width="82.855" height="13.8092" rx="6.90458" fill="#D9D9D9"/>
<rect x="564.794" y="1251.68" width="60.7603" height="13.8092" rx="6.90458" fill="#D9D9D9"/>
<rect x="742.933" y="986.547" width="162.948" height="231.994" rx="13.8092" fill="#185697"/>
<rect x="767.79" y="1019.69" width="113.235" height="27.6183" rx="13.8092" fill="#D9D9D9"/>
<rect x="767.79" y="1074.93" width="113.235" height="102.188" rx="8.2855" fill="#D9D9D9"/>
<rect x="782.979" y="1232.35" width="82.855" height="13.8092" rx="6.90458" fill="#D9D9D9"/>
<rect x="794.027" y="1251.68" width="60.7603" height="13.8092" rx="6.90458" fill="#D9D9D9"/>
<rect x="972.165" y="986.547" width="162.948" height="231.994" rx="13.8092" fill="#2C8FF5"/>
<rect x="997.021" y="1019.69" width="113.235" height="27.6183" rx="13.8092" fill="#D9D9D9"/>
<rect x="997.021" y="1074.93" width="113.235" height="102.188" rx="8.2855" fill="#D9D9D9"/>
<rect x="1012.21" y="1232.35" width="82.855" height="13.8092" rx="6.90458" fill="#D9D9D9"/>
<rect x="1023.26" y="1251.68" width="60.7603" height="13.8092" rx="6.90458" fill="#D9D9D9"/>
<ellipse cx="1349.15" cy="1767.57" rx="515.082" ry="41.4275" fill="url(#paint1_radial_23_269)"/>
<rect x="922.452" y="243.041" width="792.646" height="1527.29" rx="110.473" fill="#1B1D1B"/>
<rect x="977.688" y="309.325" width="682.173" height="1403.01" rx="44.1893" fill="#FFFFFE"/>
<rect x="1016.35" y="430.846" width="602.079" height="108.237" rx="27.6183" fill="#F6F5F4"/>
<path d="M1048.96 477.361C1048.77 475.771 1048.01 474.536 1046.67 473.657C1045.33 472.779 1043.69 472.339 1041.74 472.339C1040.32 472.339 1039.07 472.569 1038.01 473.03C1036.95 473.49 1036.12 474.123 1035.53 474.929C1034.94 475.734 1034.65 476.649 1034.65 477.675C1034.65 478.533 1034.85 479.27 1035.26 479.887C1035.68 480.494 1036.21 481.001 1036.86 481.409C1037.51 481.807 1038.19 482.137 1038.9 482.398C1039.61 482.649 1040.26 482.853 1040.86 483.01L1044.12 483.889C1044.96 484.109 1045.89 484.412 1046.92 484.799C1047.95 485.186 1048.94 485.714 1049.88 486.384C1050.84 487.043 1051.62 487.89 1052.24 488.926C1052.86 489.962 1053.16 491.233 1053.16 492.739C1053.16 494.476 1052.71 496.045 1051.8 497.447C1050.9 498.849 1049.58 499.963 1047.84 500.789C1046.12 501.616 1044.02 502.029 1041.55 502.029C1039.25 502.029 1037.26 501.658 1035.57 500.915C1033.9 500.172 1032.58 499.136 1031.62 497.808C1030.67 496.479 1030.13 494.936 1030 493.179H1034.02C1034.12 494.392 1034.53 495.396 1035.24 496.192C1035.97 496.976 1036.88 497.562 1037.97 497.949C1039.08 498.326 1040.28 498.514 1041.55 498.514C1043.04 498.514 1044.37 498.273 1045.55 497.792C1046.74 497.3 1047.67 496.62 1048.36 495.752C1049.05 494.873 1049.4 493.848 1049.4 492.676C1049.4 491.609 1049.1 490.741 1048.5 490.072C1047.91 489.402 1047.12 488.858 1046.15 488.44C1045.18 488.021 1044.12 487.655 1043 487.341L1039.04 486.211C1036.53 485.489 1034.54 484.459 1033.08 483.12C1031.61 481.781 1030.88 480.029 1030.88 477.863C1030.88 476.064 1031.37 474.494 1032.34 473.155C1033.32 471.806 1034.64 470.76 1036.29 470.017C1037.96 469.264 1039.81 468.887 1041.87 468.887C1043.94 468.887 1045.78 469.258 1047.39 470.001C1049 470.733 1050.28 471.738 1051.22 473.014C1052.17 474.29 1052.67 475.739 1052.72 477.361H1048.96ZM1069.17 501.966C1066.84 501.966 1064.84 501.454 1063.16 500.428C1061.48 499.393 1060.19 497.949 1059.28 496.097C1058.38 494.235 1057.93 492.07 1057.93 489.601C1057.93 487.132 1058.38 484.956 1059.28 483.073C1060.19 481.179 1061.46 479.704 1063.08 478.648C1064.71 477.581 1066.61 477.047 1068.79 477.047C1070.04 477.047 1071.28 477.256 1072.51 477.675C1073.73 478.093 1074.85 478.773 1075.85 479.715C1076.86 480.646 1077.66 481.88 1078.25 483.418C1078.85 484.956 1079.15 486.849 1079.15 489.099V490.668H1060.57V487.467H1075.38C1075.38 486.107 1075.11 484.893 1074.56 483.826C1074.03 482.759 1073.27 481.917 1072.27 481.3C1071.29 480.682 1070.13 480.374 1068.79 480.374C1067.31 480.374 1066.04 480.74 1064.96 481.472C1063.89 482.194 1063.07 483.136 1062.5 484.297C1061.92 485.458 1061.63 486.703 1061.63 488.032V490.166C1061.63 491.986 1061.95 493.529 1062.58 494.795C1063.21 496.05 1064.1 497.008 1065.23 497.667C1066.36 498.315 1067.67 498.64 1069.17 498.64C1070.14 498.64 1071.02 498.504 1071.8 498.232C1072.6 497.949 1073.28 497.531 1073.86 496.976C1074.43 496.411 1074.88 495.71 1075.19 494.873L1078.77 495.878C1078.39 497.091 1077.76 498.158 1076.87 499.079C1075.98 499.989 1074.88 500.7 1073.58 501.213C1072.27 501.715 1070.8 501.966 1069.17 501.966ZM1091.87 502.029C1090.35 502.029 1088.96 501.741 1087.71 501.166C1086.47 500.58 1085.48 499.738 1084.75 498.64C1084.02 497.531 1083.65 496.192 1083.65 494.622C1083.65 493.241 1083.92 492.122 1084.47 491.264C1085.01 490.396 1085.74 489.716 1086.65 489.224C1087.56 488.732 1088.56 488.366 1089.66 488.126C1090.77 487.875 1091.88 487.676 1093 487.529C1094.47 487.341 1095.65 487.2 1096.56 487.106C1097.49 487.001 1098.15 486.828 1098.57 486.588C1099 486.347 1099.22 485.929 1099.22 485.333V485.207C1099.22 483.659 1098.79 482.456 1097.95 481.598C1097.11 480.74 1095.84 480.311 1094.13 480.311C1092.36 480.311 1090.98 480.698 1089.97 481.472C1088.97 482.246 1088.26 483.073 1087.86 483.952L1084.34 482.696C1084.97 481.232 1085.8 480.091 1086.85 479.275C1087.91 478.449 1089.06 477.873 1090.3 477.549C1091.56 477.214 1092.79 477.047 1094.01 477.047C1094.78 477.047 1095.67 477.141 1096.67 477.329C1097.69 477.507 1098.67 477.879 1099.61 478.444C1100.56 479.009 1101.35 479.861 1101.98 481.001C1102.61 482.142 1102.92 483.669 1102.92 485.584V501.464H1099.22V498.2H1099.03C1098.78 498.723 1098.36 499.283 1097.77 499.879C1097.19 500.476 1096.41 500.983 1095.43 501.401C1094.46 501.82 1093.27 502.029 1091.87 502.029ZM1092.44 498.702C1093.9 498.702 1095.14 498.415 1096.14 497.839C1097.16 497.264 1097.92 496.521 1098.43 495.611C1098.95 494.701 1099.22 493.744 1099.22 492.739V489.35C1099.06 489.538 1098.71 489.711 1098.18 489.868C1097.66 490.014 1097.05 490.145 1096.36 490.26C1095.68 490.364 1095.02 490.459 1094.37 490.542C1093.73 490.616 1093.21 490.678 1092.81 490.731C1091.85 490.856 1090.95 491.06 1090.11 491.343C1089.29 491.615 1088.62 492.028 1088.11 492.582C1087.6 493.126 1087.35 493.869 1087.35 494.811C1087.35 496.097 1087.83 497.07 1088.78 497.729C1089.74 498.378 1090.96 498.702 1092.44 498.702ZM1109.68 501.464V477.361H1113.26V481.001H1113.51C1113.95 479.809 1114.74 478.841 1115.89 478.098C1117.04 477.356 1118.34 476.984 1119.79 476.984C1120.06 476.984 1120.4 476.989 1120.81 477C1121.21 477.01 1121.52 477.026 1121.73 477.047V480.813C1121.61 480.782 1121.32 480.735 1120.87 480.672C1120.43 480.599 1119.96 480.562 1119.47 480.562C1118.3 480.562 1117.25 480.808 1116.33 481.3C1115.42 481.781 1114.7 482.45 1114.17 483.308C1113.64 484.156 1113.38 485.123 1113.38 486.211V501.464H1109.68ZM1135.18 501.966C1132.92 501.966 1130.97 501.433 1129.34 500.366C1127.71 499.299 1126.45 497.829 1125.58 495.956C1124.7 494.084 1124.26 491.944 1124.26 489.538C1124.26 487.09 1124.71 484.93 1125.61 483.057C1126.52 481.174 1127.78 479.704 1129.4 478.648C1131.04 477.581 1132.94 477.047 1135.12 477.047C1136.81 477.047 1138.34 477.361 1139.7 477.989C1141.06 478.616 1142.17 479.495 1143.04 480.625C1143.91 481.755 1144.45 483.073 1144.66 484.579H1140.95C1140.67 483.481 1140.04 482.508 1139.07 481.661C1138.11 480.803 1136.81 480.374 1135.18 480.374C1133.74 480.374 1132.47 480.75 1131.38 481.504C1130.3 482.246 1129.46 483.298 1128.86 484.658C1128.26 486.007 1127.96 487.592 1127.96 489.412C1127.96 491.275 1128.25 492.896 1128.84 494.277C1129.44 495.658 1130.27 496.73 1131.35 497.494C1132.44 498.258 1133.71 498.64 1135.18 498.64C1136.14 498.64 1137.02 498.472 1137.8 498.137C1138.58 497.803 1139.25 497.321 1139.79 496.694C1140.34 496.066 1140.72 495.313 1140.95 494.434H1144.66C1144.45 495.857 1143.93 497.138 1143.1 498.279C1142.29 499.408 1141.2 500.308 1139.86 500.978C1138.52 501.637 1136.96 501.966 1135.18 501.966ZM1153.77 486.964V501.464H1150.07V469.326H1153.77V481.127H1154.09C1154.65 479.882 1155.5 478.893 1156.63 478.161C1157.77 477.418 1159.29 477.047 1161.18 477.047C1162.82 477.047 1164.26 477.377 1165.5 478.036C1166.73 478.684 1167.69 479.683 1168.37 481.033C1169.06 482.372 1169.4 484.077 1169.4 486.148V501.464H1165.7V486.4C1165.7 484.485 1165.2 483.005 1164.21 481.959C1163.23 480.902 1161.86 480.374 1160.11 480.374C1158.9 480.374 1157.81 480.63 1156.85 481.143C1155.9 481.655 1155.14 482.403 1154.59 483.387C1154.05 484.37 1153.77 485.563 1153.77 486.964ZM1189.11 501.464V469.326H1208.38V472.779H1193V483.638H1206.94V487.09H1193V501.464H1189.11ZM1222.57 501.966C1220.39 501.966 1218.48 501.448 1216.84 500.413C1215.21 499.377 1213.93 497.928 1213.01 496.066C1212.1 494.204 1211.64 492.028 1211.64 489.538C1211.64 487.027 1212.1 484.836 1213.01 482.963C1213.93 481.09 1215.21 479.636 1216.84 478.601C1218.48 477.565 1220.39 477.047 1222.57 477.047C1224.74 477.047 1226.65 477.565 1228.28 478.601C1229.92 479.636 1231.2 481.09 1232.11 482.963C1233.03 484.836 1233.49 487.027 1233.49 489.538C1233.49 492.028 1233.03 494.204 1232.11 496.066C1231.2 497.928 1229.92 499.377 1228.28 500.413C1226.65 501.448 1224.74 501.966 1222.57 501.966ZM1222.57 498.64C1224.22 498.64 1225.58 498.216 1226.65 497.368C1227.71 496.521 1228.5 495.407 1229.01 494.026C1229.53 492.645 1229.78 491.149 1229.78 489.538C1229.78 487.927 1229.53 486.426 1229.01 485.034C1228.5 483.643 1227.71 482.518 1226.65 481.661C1225.58 480.803 1224.22 480.374 1222.57 480.374C1220.91 480.374 1219.55 480.803 1218.49 481.661C1217.42 482.518 1216.63 483.643 1216.12 485.034C1215.6 486.426 1215.35 487.927 1215.35 489.538C1215.35 491.149 1215.6 492.645 1216.12 494.026C1216.63 495.407 1217.42 496.521 1218.49 497.368C1219.55 498.216 1220.91 498.64 1222.57 498.64ZM1239.14 501.464V477.361H1242.72V481.001H1242.97C1243.41 479.809 1244.2 478.841 1245.35 478.098C1246.51 477.356 1247.8 476.984 1249.25 476.984C1249.52 476.984 1249.86 476.989 1250.27 477C1250.67 477.01 1250.98 477.026 1251.19 477.047V480.813C1251.07 480.782 1250.78 480.735 1250.33 480.672C1249.89 480.599 1249.42 480.562 1248.93 480.562C1247.76 480.562 1246.71 480.808 1245.79 481.3C1244.88 481.781 1244.16 482.45 1243.63 483.308C1243.11 484.156 1242.84 485.123 1242.84 486.211V501.464H1239.14ZM1278.12 501.966C1275.79 501.966 1273.79 501.454 1272.11 500.428C1270.43 499.393 1269.14 497.949 1268.23 496.097C1267.33 494.235 1266.88 492.07 1266.88 489.601C1266.88 487.132 1267.33 484.956 1268.23 483.073C1269.14 481.179 1270.41 479.704 1272.03 478.648C1273.66 477.581 1275.56 477.047 1277.74 477.047C1278.99 477.047 1280.23 477.256 1281.46 477.675C1282.68 478.093 1283.8 478.773 1284.8 479.715C1285.8 480.646 1286.61 481.88 1287.2 483.418C1287.8 484.956 1288.1 486.849 1288.1 489.099V490.668H1269.52V487.467H1284.33C1284.33 486.107 1284.06 484.893 1283.51 483.826C1282.98 482.759 1282.22 481.917 1281.22 481.3C1280.24 480.682 1279.08 480.374 1277.74 480.374C1276.26 480.374 1274.99 480.74 1273.91 481.472C1272.84 482.194 1272.02 483.136 1271.45 484.297C1270.87 485.458 1270.58 486.703 1270.58 488.032V490.166C1270.58 491.986 1270.9 493.529 1271.52 494.795C1272.16 496.05 1273.05 497.008 1274.18 497.667C1275.31 498.315 1276.62 498.64 1278.12 498.64C1279.09 498.64 1279.97 498.504 1280.75 498.232C1281.55 497.949 1282.23 497.531 1282.81 496.976C1283.38 496.411 1283.83 495.71 1284.14 494.873L1287.72 495.878C1287.34 497.091 1286.71 498.158 1285.82 499.079C1284.93 499.989 1283.83 500.7 1282.53 501.213C1281.22 501.715 1279.75 501.966 1278.12 501.966ZM1294.23 501.464V469.326H1305.47C1307.71 469.326 1309.55 469.714 1311.01 470.488C1312.46 471.251 1313.54 472.282 1314.25 473.579C1314.97 474.866 1315.32 476.294 1315.32 477.863C1315.32 479.244 1315.08 480.384 1314.58 481.284C1314.1 482.184 1313.47 482.895 1312.67 483.418C1311.89 483.941 1311.03 484.328 1310.11 484.579V484.893C1311.1 484.956 1312.08 485.301 1313.08 485.929C1314.07 486.556 1314.9 487.456 1315.57 488.628C1316.24 489.8 1316.58 491.233 1316.58 492.928C1316.58 494.539 1316.21 495.988 1315.48 497.274C1314.75 498.561 1313.59 499.581 1312.01 500.334C1310.43 501.087 1308.38 501.464 1305.84 501.464H1294.23ZM1298.12 498.012H1305.84C1308.39 498.012 1310.19 497.52 1311.26 496.537C1312.34 495.543 1312.87 494.34 1312.87 492.928C1312.87 491.84 1312.6 490.835 1312.04 489.915C1311.49 488.984 1310.7 488.241 1309.67 487.686C1308.65 487.121 1307.43 486.839 1306.03 486.839H1298.12V498.012ZM1298.12 483.449H1305.34C1306.51 483.449 1307.57 483.219 1308.51 482.759C1309.46 482.299 1310.22 481.65 1310.77 480.813C1311.34 479.976 1311.62 478.993 1311.62 477.863C1311.62 476.451 1311.13 475.253 1310.14 474.269C1309.16 473.276 1307.6 472.779 1305.47 472.779H1298.12V483.449ZM1332.26 501.966C1330.09 501.966 1328.18 501.448 1326.53 500.413C1324.9 499.377 1323.63 497.928 1322.71 496.066C1321.8 494.204 1321.34 492.028 1321.34 489.538C1321.34 487.027 1321.8 484.836 1322.71 482.963C1323.63 481.09 1324.9 479.636 1326.53 478.601C1328.18 477.565 1330.09 477.047 1332.26 477.047C1334.44 477.047 1336.34 477.565 1337.97 478.601C1339.62 479.636 1340.89 481.09 1341.8 482.963C1342.72 484.836 1343.18 487.027 1343.18 489.538C1343.18 492.028 1342.72 494.204 1341.8 496.066C1340.89 497.928 1339.62 499.377 1337.97 500.413C1336.34 501.448 1334.44 501.966 1332.26 501.966ZM1332.26 498.64C1333.91 498.64 1335.27 498.216 1336.34 497.368C1337.41 496.521 1338.2 495.407 1338.71 494.026C1339.22 492.645 1339.48 491.149 1339.48 489.538C1339.48 487.927 1339.22 486.426 1338.71 485.034C1338.2 483.643 1337.41 482.518 1336.34 481.661C1335.27 480.803 1333.91 480.374 1332.26 480.374C1330.61 480.374 1329.25 480.803 1328.18 481.661C1327.11 482.518 1326.32 483.643 1325.81 485.034C1325.3 486.426 1325.04 487.927 1325.04 489.538C1325.04 491.149 1325.3 492.645 1325.81 494.026C1326.32 495.407 1327.11 496.521 1328.18 497.368C1329.25 498.216 1330.61 498.64 1332.26 498.64ZM1358.63 501.966C1356.45 501.966 1354.54 501.448 1352.9 500.413C1351.27 499.377 1349.99 497.928 1349.07 496.066C1348.16 494.204 1347.71 492.028 1347.71 489.538C1347.71 487.027 1348.16 484.836 1349.07 482.963C1349.99 481.09 1351.27 479.636 1352.9 478.601C1354.54 477.565 1356.45 477.047 1358.63 477.047C1360.8 477.047 1362.71 477.565 1364.34 478.601C1365.98 479.636 1367.26 481.09 1368.17 482.963C1369.09 484.836 1369.55 487.027 1369.55 489.538C1369.55 492.028 1369.09 494.204 1368.17 496.066C1367.26 497.928 1365.98 499.377 1364.34 500.413C1362.71 501.448 1360.8 501.966 1358.63 501.966ZM1358.63 498.64C1360.28 498.64 1361.64 498.216 1362.71 497.368C1363.78 496.521 1364.57 495.407 1365.08 494.026C1365.59 492.645 1365.85 491.149 1365.85 489.538C1365.85 487.927 1365.59 486.426 1365.08 485.034C1364.57 483.643 1363.78 482.518 1362.71 481.661C1361.64 480.803 1360.28 480.374 1358.63 480.374C1356.98 480.374 1355.62 480.803 1354.55 481.661C1353.48 482.518 1352.69 483.643 1352.18 485.034C1351.67 486.426 1351.41 487.927 1351.41 489.538C1351.41 491.149 1351.67 492.645 1352.18 494.026C1352.69 495.407 1353.48 496.521 1354.55 497.368C1355.62 498.216 1356.98 498.64 1358.63 498.64ZM1378.66 492.676L1378.59 488.094H1379.35L1389.89 477.361H1394.47L1383.24 488.722H1382.92L1378.66 492.676ZM1375.2 501.464V469.326H1378.91V501.464H1375.2ZM1390.52 501.464L1381.1 489.538L1383.74 486.964L1395.23 501.464H1390.52ZM1416.31 482.759L1412.99 483.701C1412.78 483.146 1412.47 482.607 1412.06 482.084C1411.66 481.551 1411.12 481.111 1410.43 480.766C1409.74 480.421 1408.85 480.248 1407.78 480.248C1406.3 480.248 1405.07 480.588 1404.09 481.268C1403.12 481.938 1402.63 482.79 1402.63 483.826C1402.63 484.747 1402.96 485.474 1403.63 486.007C1404.3 486.541 1405.35 486.985 1406.77 487.341L1410.35 488.22C1412.51 488.743 1414.11 489.543 1415.17 490.621C1416.22 491.688 1416.75 493.064 1416.75 494.748C1416.75 496.129 1416.36 497.363 1415.56 498.451C1414.78 499.539 1413.68 500.397 1412.26 501.025C1410.85 501.652 1409.21 501.966 1407.34 501.966C1404.88 501.966 1402.84 501.433 1401.23 500.366C1399.62 499.299 1398.6 497.74 1398.17 495.689L1401.69 494.811C1402.02 496.108 1402.66 497.081 1403.59 497.729C1404.53 498.378 1405.76 498.702 1407.27 498.702C1409 498.702 1410.37 498.336 1411.39 497.604C1412.41 496.861 1412.92 495.972 1412.92 494.936C1412.92 494.099 1412.63 493.398 1412.04 492.833C1411.46 492.258 1410.56 491.829 1409.35 491.547L1405.33 490.605C1403.12 490.082 1401.5 489.271 1400.46 488.173C1399.44 487.064 1398.93 485.678 1398.93 484.014C1398.93 482.654 1399.31 481.451 1400.07 480.405C1400.85 479.359 1401.9 478.538 1403.23 477.941C1404.56 477.345 1406.08 477.047 1407.78 477.047C1410.16 477.047 1412.03 477.57 1413.39 478.616C1414.76 479.662 1415.74 481.043 1416.31 482.759Z" fill="black"/>
<line x1="1527.2" y1="455.965" x2="1607.3" y2="455.965" stroke="#969390" stroke-width="8.2855"/>
<line x1="1527.2" y1="480.821" x2="1607.3" y2="480.821" stroke="#969390" stroke-width="8.2855"/>
<line x1="1527.2" y1="505.678" x2="1607.3" y2="505.678" stroke="#969390" stroke-width="8.2855"/>
<rect x="1021.88" y="657.316" width="162.948" height="231.994" rx="13.8092" fill="#6383A4"/>
<rect x="1046.73" y="690.458" width="113.235" height="27.6183" rx="13.8092" fill="#D9D9D9"/>
<rect x="1046.73" y="745.695" width="113.235" height="102.188" rx="8.2855" fill="#D9D9D9"/>
<rect x="1061.92" y="903.119" width="82.855" height="13.8092" rx="6.90458" fill="#D9D9D9"/>
<rect x="1072.97" y="922.452" width="60.7603" height="13.8092" rx="6.90458" fill="#D9D9D9"/>
<rect x="1234.54" y="657.316" width="162.948" height="231.994" rx="13.8092" fill="#9F63A4"/>
<rect x="1259.4" y="690.458" width="113.235" height="27.6183" rx="13.8092" fill="#D9D9D9"/>
<rect x="1259.4" y="745.695" width="113.235" height="102.188" rx="8.2855" fill="#D9D9D9"/>
<rect x="1274.59" y="903.119" width="82.855" height="13.8092" rx="6.90458" fill="#D9D9D9"/>
<rect x="1285.63" y="922.452" width="60.7603" height="13.8092" rx="6.90458" fill="#D9D9D9"/>
<rect x="1447.2" y="657.316" width="162.948" height="231.994" rx="13.8092" fill="#63A499"/>
<rect x="1472.06" y="690.458" width="113.235" height="27.6183" rx="13.8092" fill="#D9D9D9"/>
<rect x="1472.06" y="745.695" width="113.235" height="102.188" rx="8.2855" fill="#D9D9D9"/>
<rect x="1487.25" y="903.119" width="82.855" height="13.8092" rx="6.90458" fill="#D9D9D9"/>
<rect x="1498.29" y="922.452" width="60.7603" height="13.8092" rx="6.90458" fill="#D9D9D9"/>
<rect x="1021.88" y="957.261" width="162.948" height="231.994" rx="13.8092" fill="#6563A4"/>
<rect x="1046.73" y="990.403" width="113.235" height="27.6183" rx="13.8092" fill="#D9D9D9"/>
<rect x="1046.73" y="1045.64" width="113.235" height="102.188" rx="8.2855" fill="#D9D9D9"/>
<rect x="1061.92" y="1203.06" width="82.855" height="13.8092" rx="6.90458" fill="#D9D9D9"/>
<rect x="1072.97" y="1222.4" width="60.7603" height="13.8092" rx="6.90458" fill="#D9D9D9"/>
<rect x="1234.54" y="957.261" width="162.948" height="231.994" rx="13.8092" fill="#63A474"/>
<rect x="1259.4" y="990.403" width="113.235" height="27.6183" rx="13.8092" fill="#D9D9D9"/>
<rect x="1259.4" y="1045.64" width="113.235" height="102.188" rx="8.2855" fill="#D9D9D9"/>
<rect x="1274.59" y="1203.06" width="82.855" height="13.8092" rx="6.90458" fill="#D9D9D9"/>
<rect x="1285.63" y="1222.4" width="60.7603" height="13.8092" rx="6.90458" fill="#D9D9D9"/>
<rect x="1447.2" y="957.261" width="162.948" height="231.994" rx="13.8092" fill="#5D9DCA"/>
<rect x="1472.06" y="990.403" width="113.235" height="27.6183" rx="13.8092" fill="#D9D9D9"/>
<rect x="1472.06" y="1045.64" width="113.235" height="102.188" rx="8.2855" fill="#D9D9D9"/>
<rect x="1487.25" y="1203.06" width="82.855" height="13.8092" rx="6.90458" fill="#D9D9D9"/>
<rect x="1498.29" y="1222.4" width="60.7603" height="13.8092" rx="6.90458" fill="#D9D9D9"/>
<rect x="1021.88" y="1257.21" width="162.948" height="231.994" rx="13.8092" fill="#E23CB0"/>
<rect x="1046.73" y="1290.35" width="113.235" height="27.6183" rx="13.8092" fill="#D9D9D9"/>
<rect x="1046.73" y="1345.58" width="113.235" height="102.188" rx="8.2855" fill="#D9D9D9"/>
<rect x="1061.92" y="1503.01" width="82.855" height="13.8092" rx="6.90458" fill="#D9D9D9"/>
<rect x="1072.97" y="1522.34" width="60.7603" height="13.8092" rx="6.90458" fill="#D9D9D9"/>
<rect x="1234.54" y="1257.21" width="162.948" height="231.994" rx="13.8092" fill="#47298D"/>
<rect x="1259.4" y="1290.35" width="113.235" height="27.6183" rx="13.8092" fill="#D9D9D9"/>
<rect x="1259.4" y="1345.58" width="113.235" height="102.188" rx="8.2855" fill="#D9D9D9"/>
<rect x="1274.59" y="1503.01" width="82.855" height="13.8092" rx="6.90458" fill="#D9D9D9"/>
<rect x="1285.63" y="1522.34" width="60.7603" height="13.8092" rx="6.90458" fill="#D9D9D9"/>
<rect x="1447.2" y="1257.21" width="162.948" height="231.994" rx="13.8092" fill="#81A463"/>
<rect x="1472.06" y="1290.35" width="113.235" height="27.6183" rx="13.8092" fill="#D9D9D9"/>
<rect x="1472.06" y="1345.58" width="113.235" height="102.188" rx="8.2855" fill="#D9D9D9"/>
<rect x="1487.25" y="1503.01" width="82.855" height="13.8092" rx="6.90458" fill="#D9D9D9"/>
<rect x="1498.29" y="1522.34" width="60.7603" height="13.8092" rx="6.90458" fill="#D9D9D9"/>
<rect x="1204.16" y="287.231" width="229.232" height="63.5221" rx="31.7611" fill="#1B1D1B"/>
<line x1="1535.58" y1="336.943" x2="1535.58" y2="350.753" stroke="#D9D9D9" stroke-width="5.52366"/>
<line x1="1543.86" y1="328.658" x2="1543.86" y2="350.753" stroke="#D9D9D9" stroke-width="5.52366"/>
<line x1="1552.15" y1="320.373" x2="1552.15" y2="350.753" stroke="#D9D9D9" stroke-width="5.52366"/>
<path d="M1590.82 350.752H1590.83M1574.24 332.226C1578.8 328.15 1584.7 325.896 1590.82 325.896C1596.93 325.896 1602.83 328.15 1607.39 332.226M1579.22 338.919C1582.31 335.883 1586.48 334.182 1590.82 334.182C1595.15 334.182 1599.32 335.883 1602.41 338.919M1585.02 344.835C1586.56 343.317 1588.65 342.466 1590.82 342.466C1592.98 342.466 1595.07 343.317 1596.61 344.835" stroke="#D9D9D9" stroke-width="3.31427" stroke-linecap="round" stroke-linejoin="round"/>
<path d="M1023.13 328.241V343.134H1021.33V330.132H1021.24L1017.6 332.546V330.714L1021.33 328.241H1023.13ZM1027.88 343.134L1034.54 329.958V329.841H1026.86V328.241H1036.4V329.928L1029.77 343.134H1027.88ZM1039.69 341.229C1039.33 341.229 1039.03 341.101 1038.77 340.844C1038.51 340.587 1038.38 340.279 1038.38 339.92C1038.38 339.561 1038.51 339.254 1038.77 338.997C1039.03 338.74 1039.33 338.611 1039.69 338.611C1040.05 338.611 1040.36 338.74 1040.62 338.997C1040.87 339.254 1041 339.561 1041 339.92C1041 340.158 1040.94 340.376 1040.82 340.575C1040.7 340.773 1040.55 340.933 1040.35 341.055C1040.15 341.171 1039.94 341.229 1039.69 341.229ZM1039.69 333.695C1039.33 333.695 1039.03 333.567 1038.77 333.31C1038.51 333.053 1038.38 332.745 1038.38 332.386C1038.38 332.028 1038.51 331.72 1038.77 331.463C1039.03 331.206 1039.33 331.077 1039.69 331.077C1040.05 331.077 1040.36 331.206 1040.62 331.463C1040.87 331.72 1041 332.028 1041 332.386C1041 332.624 1040.94 332.842 1040.82 333.041C1040.7 333.24 1040.55 333.4 1040.35 333.521C1040.15 333.637 1039.94 333.695 1039.69 333.695ZM1048.91 343.338C1047.82 343.338 1046.88 343.04 1046.11 342.444C1045.34 341.842 1044.75 340.972 1044.34 339.833C1043.94 338.689 1043.73 337.307 1043.73 335.688C1043.73 334.078 1043.94 332.704 1044.34 331.565C1044.76 330.421 1045.35 329.548 1046.12 328.947C1046.89 328.341 1047.82 328.038 1048.91 328.038C1050 328.038 1050.93 328.341 1051.7 328.947C1052.47 329.548 1053.06 330.421 1053.47 331.565C1053.88 332.704 1054.09 334.078 1054.09 335.688C1054.09 337.307 1053.88 338.689 1053.48 339.833C1053.07 340.972 1052.48 341.842 1051.71 342.444C1050.94 343.04 1050.01 343.338 1048.91 343.338ZM1048.91 341.738C1050 341.738 1050.84 341.215 1051.44 340.167C1052.04 339.12 1052.34 337.627 1052.34 335.688C1052.34 334.398 1052.21 333.3 1051.93 332.394C1051.66 331.487 1051.26 330.796 1050.75 330.321C1050.24 329.846 1049.63 329.608 1048.91 329.608C1047.83 329.608 1046.99 330.139 1046.39 331.201C1045.78 332.258 1045.48 333.754 1045.48 335.688C1045.48 336.977 1045.61 338.073 1045.89 338.975C1046.16 339.877 1046.55 340.563 1047.06 341.033C1047.57 341.503 1048.19 341.738 1048.91 341.738ZM1061.71 343.338C1060.61 343.338 1059.68 343.04 1058.91 342.444C1058.14 341.842 1057.55 340.972 1057.14 339.833C1056.74 338.689 1056.53 337.307 1056.53 335.688C1056.53 334.078 1056.74 332.704 1057.14 331.565C1057.55 330.421 1058.15 329.548 1058.92 328.947C1059.69 328.341 1060.62 328.038 1061.71 328.038C1062.8 328.038 1063.72 328.341 1064.49 328.947C1065.27 329.548 1065.86 330.421 1066.27 331.565C1066.68 332.704 1066.89 334.078 1066.89 335.688C1066.89 337.307 1066.68 338.689 1066.28 339.833C1065.87 340.972 1065.28 341.842 1064.51 342.444C1063.74 343.04 1062.81 343.338 1061.71 343.338ZM1061.71 341.738C1062.8 341.738 1063.64 341.215 1064.24 340.167C1064.84 339.12 1065.14 337.627 1065.14 335.688C1065.14 334.398 1065 333.3 1064.73 332.394C1064.46 331.487 1064.06 330.796 1063.55 330.321C1063.04 329.846 1062.43 329.608 1061.71 329.608C1060.63 329.608 1059.79 330.139 1059.19 331.201C1058.58 332.258 1058.28 333.754 1058.28 335.688C1058.28 336.977 1058.41 338.073 1058.68 338.975C1058.96 339.877 1059.35 340.563 1059.86 341.033C1060.37 341.503 1060.99 341.738 1061.71 341.738Z" fill="#ADADAD"/>
<defs>
<radialGradient id="paint0_radial_23_269" cx="0" cy="0" r="1" gradientUnits="userSpaceOnUse" gradientTransform="translate(738.79 1524.53) scale(738.79 57.9985)">
<stop stop-color="#303030"/>
<stop offset="1" stop-color="white" stop-opacity="0"/>
</radialGradient>
<radialGradient id="paint1_radial_23_269" cx="0" cy="0" r="1" gradientUnits="userSpaceOnUse" gradientTransform="translate(1349.15 1767.57) scale(515.082 41.4275)">
<stop stop-color="#303030"/>
<stop offset="1" stop-color="white" stop-opacity="0"/>
</radialGradient>
</defs>
</svg>
