<svg width="1280" height="105" viewBox="0 0 1280 105" fill="none" xmlns="http://www.w3.org/2000/svg">
<g clip-path="url(#clip0_186_1047)">
<path d="M640 0C1184.55 0 1626 186.921 1626 417.5C1626 648.079 1184.55 835 640 835C95.4472 835 -346 648.079 -346 417.5C-346 186.921 95.4472 0 640 0Z" fill="#141414"/>
<ellipse cx="640" cy="174" rx="670" ry="170" fill="url(#paint0_radial_186_1047)"/>
<path d="M640 0C890.862 0 1119.84 39.6689 1293.86 105H1282.34C1110.14 42.1041 885.656 4 640 4C394.344 4 169.857 42.1041 -2.33887 105H-13.8633C160.158 39.6689 389.138 0 640 0Z" fill="#4CFFAB"/>
</g>
<defs>
<radialGradient id="paint0_radial_186_1047" cx="0" cy="0" r="1" gradientUnits="userSpaceOnUse" gradientTransform="translate(636.67 2.28476) rotate(90) scale(93.9574 370.303)">
<stop stop-color="#44E69A" stop-opacity="0.65"/>
<stop offset="1" stop-color="#141414" stop-opacity="0"/>
</radialGradient>
<clipPath id="clip0_186_1047">
<rect width="1280" height="105" fill="white"/>
</clipPath>
</defs>
</svg>
