<svg width="116" height="42" viewBox="0 0 116 42" fill="none" xmlns="http://www.w3.org/2000/svg">
<g clip-path="url(#clip0_2_4)">
<path d="M20.0631 13.3964C19.3509 13.9613 18.3234 13.8344 17.7664 13.112L15.9847 10.802C14.6577 9.0814 11.9472 9.77331 11.5814 11.9259C11.2614 13.8076 8.87455 14.3836 7.75209 12.8509L0.822419 3.38386C0.283444 2.64802 0.435031 1.60833 1.16048 1.06164C1.88593 0.514953 2.91094 0.66871 3.44992 1.40455L8.80477 8.72264C9.4821 4.74815 14.4832 3.47172 16.9339 6.64814L20.3434 11.0668C20.9004 11.7892 20.7753 12.8314 20.0631 13.3964Z" fill="#249351"/>
<path d="M3.88784 11.6208C4.60006 11.0558 5.62748 11.1827 6.1845 11.9052L7.96624 14.2152C9.29322 15.9358 12.0037 15.2439 12.3695 13.0913C12.6895 11.2096 15.0764 10.6336 16.1988 12.1663L19.6877 16.6533C20.2267 17.3891 20.0751 18.4288 19.3497 18.9755C18.6242 19.5222 17.5992 19.3685 17.0602 18.6326L15.1449 16.2958C14.4676 20.2703 9.46646 21.5467 7.01582 18.3703L3.60632 13.9516C3.0493 13.2292 3.17442 12.187 3.88664 11.622L3.88784 11.6208Z" fill="#249351"/>
<path d="M28.6999 19.8432C28.1429 19.1207 28.268 18.0786 28.9802 17.5136L31.2576 15.7064C32.9539 14.3604 32.2718 11.6111 30.1496 11.2401C28.2945 10.9155 27.7266 8.49444 29.2377 7.35591L38.5723 0.327025C39.2977 -0.219666 40.3227 -0.0659091 40.8617 0.669927C41.4007 1.40576 41.2491 2.44545 40.5236 2.99214L33.3088 8.42366C37.2272 9.11068 38.4856 14.1834 35.3541 16.6692L30.9977 20.1275C30.2855 20.6925 29.2581 20.5656 28.7011 19.8432H28.6999Z" fill="#249351"/>
<path d="M30.4516 3.43631C31.0086 4.15872 30.8835 5.20085 30.1712 5.76585L27.8938 7.5731C26.1975 8.91908 26.8797 11.6684 29.0019 12.0394C30.857 12.364 31.4248 14.785 29.9138 15.9236L25.4901 19.4624C24.7647 20.0091 23.7396 19.8553 23.2007 19.1195C22.6617 18.3837 22.8133 17.344 23.5387 16.7973L25.8426 14.8546C21.9242 14.1676 20.6658 9.0948 23.7974 6.60907L28.1537 3.15076C28.8659 2.58577 29.8933 2.71268 30.4504 3.43509L30.4516 3.43631Z" fill="#249351"/>
<path d="M22.3441 28.6036C23.0563 28.0386 24.0837 28.1656 24.6407 28.888L26.4225 31.198C27.7495 32.9186 30.46 32.2267 30.8257 30.0741C31.1457 28.1924 33.5326 27.6164 34.6551 29.1491L41.5835 38.6174C42.1225 39.3532 41.9709 40.3929 41.2455 40.9396C40.52 41.4863 39.495 41.3325 38.956 40.5967L33.6012 33.2786C32.9239 37.2531 27.9227 38.5295 25.4721 35.3531L22.0626 30.9344C21.5056 30.212 21.6307 29.1699 22.3429 28.6049L22.3441 28.6036Z" fill="#249351"/>
<path d="M38.5205 30.3804C37.8083 30.9454 36.7809 30.8185 36.2239 30.0961L34.4421 27.786C33.1152 26.0654 30.4046 26.7573 30.0389 28.9099C29.7189 30.7916 27.332 31.3676 26.2096 29.8349L22.7207 25.3479C22.1817 24.6121 22.3333 23.5724 23.0587 23.0257C23.7842 22.479 24.8092 22.6328 25.3482 23.3686L27.2634 25.7054C27.9408 21.731 32.9419 20.4545 35.3926 23.6309L38.8021 28.0496C39.3591 28.772 39.234 29.8142 38.5217 30.3792L38.5205 30.3804Z" fill="#249351"/>
<path d="M13.7073 22.1568C14.2643 22.8792 14.1392 23.9213 13.427 24.4863L11.1496 26.2936C9.45323 27.6396 10.1354 30.3889 12.2576 30.7599C14.1127 31.0845 14.6806 33.5055 13.1695 34.644L3.83491 41.6717C3.10946 42.2184 2.08445 42.0646 1.54547 41.3288C1.0065 40.593 1.15808 39.5533 1.88353 39.0066L9.09833 33.5751C5.17994 32.888 3.92153 27.8153 7.05311 25.3296L11.4094 21.8713C12.1216 21.3063 13.1491 21.4332 13.7061 22.1556L13.7073 22.1568Z" fill="#249351"/>
<path d="M11.9568 38.5636C11.3998 37.8412 11.5249 36.7991 12.2371 36.2341L14.5145 34.4268C16.2109 33.0809 15.5287 30.3315 13.4065 29.9606C11.5514 29.636 10.9835 27.2149 12.4946 26.0764L16.9183 22.5375C17.6437 21.9908 18.6687 22.1446 19.2077 22.8804C19.7467 23.6163 19.5951 24.656 18.8696 25.2027L16.5658 27.1454C20.4842 27.8324 21.7426 32.9051 18.611 35.3909L14.2547 38.8492C13.5425 39.4142 12.515 39.2873 11.958 38.5648L11.9568 38.5636Z" fill="#249351"/>
<path d="M55.965 11.5244C59.8437 11.5244 62.3064 13.7039 62.411 17.2122H59.0569C58.9787 15.538 57.7985 14.5544 55.9121 14.5544C53.8416 14.5544 52.505 15.5648 52.505 17.1854C52.505 18.568 53.2389 19.338 54.8377 19.7102L57.8514 20.3752C61.1274 21.0928 62.725 22.7938 62.725 25.6908C62.725 29.3053 59.9472 31.6446 55.728 31.6446C51.5088 31.6446 48.9668 29.4383 48.8886 25.9568H52.2427C52.2692 27.6042 53.5793 28.5878 55.728 28.5878C57.8767 28.5878 59.3709 27.6042 59.3709 25.9825C59.3709 24.6804 58.7152 23.9092 57.144 23.5638L54.1039 22.8732C50.8544 22.1556 49.1508 20.2678 49.1508 17.2915C49.1508 13.8894 51.9287 11.5232 55.9638 11.5232L55.965 11.5244Z" fill="#249351"/>
<path d="M65.1889 31.3005V20.8804H62.6998V18.1689H65.1889V14.0761H68.3855V18.1689H70.9011V20.8804H68.3855V31.3005H65.1889Z" fill="#249351"/>
<path d="M83.5586 18.1689V31.2993H80.5978L80.362 29.5445C79.5764 30.7941 77.8981 31.6446 76.1693 31.6446C73.1821 31.6446 71.4256 29.5982 71.4256 26.3815V18.1677H74.6222V25.2381C74.6222 27.7373 75.5919 28.7464 77.3736 28.7464C79.3911 28.7464 80.3608 27.5505 80.3608 25.0514V18.1665H83.5574L83.5586 18.1689Z" fill="#249351"/>
<path d="M84.8675 31.3005V28.6427L91.3135 20.8817H84.8675V18.1702H95.3233V20.8548L88.7714 28.5902H95.3233V31.3017H84.8675V31.3005Z" fill="#249351"/>
<path d="M96.2665 13.5709C96.2665 12.4812 97.1315 11.6306 98.2323 11.6306C99.3332 11.6306 100.145 12.4812 100.145 13.5709C100.145 14.6606 99.2802 15.538 98.2323 15.538C97.1315 15.538 96.2665 14.6606 96.2665 13.5709ZM96.6335 18.1689H99.83V31.2993H96.6335V18.1689Z" fill="#249351"/>
<path d="M101.821 18.169H104.782L104.991 20.1629C105.777 18.6473 107.48 17.7711 109.446 17.7711C113.089 17.7711 115.5 20.4558 115.5 24.5755C115.5 28.6952 113.298 31.6459 109.446 31.6459C107.507 31.6459 105.83 30.8746 105.018 29.5457V37.3873H101.821V18.1702V18.169ZM108.687 28.722C110.94 28.722 112.277 27.0747 112.277 24.7354C112.277 22.3961 110.94 20.7218 108.687 20.7218C106.434 20.7218 105.044 22.3692 105.044 24.7354C105.044 27.1015 106.485 28.722 108.687 28.722Z" fill="#249351"/>
</g>
<defs>
<clipPath id="clip0_2_4">
<rect width="115" height="42" fill="white" transform="translate(0.5)"/>
</clipPath>
</defs>
</svg>
